<svg width="19" height="19" viewBox="0 0 19 19" fill="none" xmlns="http://www.w3.org/2000/svg">
<path d="M18.3976 2.63327L18.3975 2.63329L18.4015 2.63714C18.4212 2.65624 18.4369 2.67919 18.4476 2.70464C18.4583 2.73011 18.4639 2.75752 18.4639 2.78524C18.4639 2.81296 18.4583 2.84037 18.4476 2.86583C18.4369 2.89129 18.4212 2.91423 18.4015 2.93334L18.75 3.29186L18.3927 2.94215L12.7657 8.69211C12.6523 8.80356 12.5622 8.93634 12.5004 9.08277C12.4376 9.23137 12.4053 9.39104 12.4053 9.55232C12.4053 9.71361 12.4376 9.87328 12.5004 10.0219C12.5625 10.1691 12.6534 10.3026 12.7676 10.4144L18.4321 16.0935L18.432 16.0935L18.4376 16.0989C18.4572 16.118 18.4729 16.141 18.4837 16.1664C18.4944 16.1919 18.5 16.2193 18.5 16.247C18.5 16.2748 18.4944 16.3022 18.4837 16.3276C18.4729 16.3531 18.4572 16.376 18.4376 16.3951L18.7861 16.7537L18.4336 16.399L16.3841 18.4358C16.3371 18.4772 16.2767 18.5 16.2143 18.5C16.152 18.5 16.0916 18.4772 16.0445 18.4357L10.3512 12.782C10.2381 12.6675 10.1035 12.5764 9.95502 12.5141C9.80546 12.4513 9.6449 12.419 9.48268 12.419C9.32047 12.419 9.1599 12.4513 9.01034 12.5141C8.86172 12.5765 8.72696 12.6677 8.61377 12.7824C8.61305 12.7831 8.61234 12.7838 8.61163 12.7845L2.95672 18.4178C2.90967 18.4592 2.84939 18.4819 2.78711 18.4819C2.72448 18.4819 2.66388 18.4589 2.61672 18.4171L0.566655 16.3979C0.566552 16.3978 0.566449 16.3977 0.566346 16.3976C0.545466 16.3769 0.528807 16.3522 0.517394 16.3248C0.505924 16.2974 0.5 16.2678 0.5 16.238C0.5 16.2081 0.505924 16.1786 0.517394 16.1511C0.528863 16.1237 0.54563 16.0989 0.566655 16.0781L0.215392 15.7223L0.569369 16.0754L6.25157 10.3786C6.2521 10.378 6.25263 10.3775 6.25316 10.377C6.3678 10.2634 6.45882 10.1282 6.52101 9.9793C6.58348 9.82971 6.61564 9.66919 6.61564 9.50709C6.61564 9.34499 6.58348 9.18447 6.52101 9.03488C6.45875 8.8858 6.36761 8.7505 6.25279 8.63682C6.25239 8.63642 6.25198 8.63602 6.25157 8.63562L0.568807 2.9563L0.568813 2.95629L0.566655 2.95416C0.54563 2.9334 0.528863 2.90859 0.517394 2.88112C0.505924 2.85366 0.5 2.82414 0.5 2.79428C0.5 2.76443 0.505924 2.73491 0.517394 2.70744C0.528863 2.67998 0.54563 2.65517 0.566655 2.63441L0.215361 2.27861L0.567823 2.63325L2.64327 0.570557L2.6433 0.570582L2.64751 0.566293C2.66822 0.545211 2.69283 0.52854 2.71988 0.517184C2.74693 0.50583 2.77591 0.5 2.80516 0.5C2.8344 0.5 2.86339 0.50583 2.89043 0.517184C2.91749 0.52854 2.9421 0.545211 2.96281 0.566293L2.96279 0.566314L2.96662 0.570136L8.66959 6.25159L8.67604 6.25802L8.68272 6.26421C8.91507 6.47941 9.22002 6.59911 9.53682 6.59911C9.85363 6.59911 10.1586 6.47941 10.3909 6.26421L10.0512 5.89738L10.4063 6.24934L16.019 0.585975L16.0206 0.584387C16.0413 0.563303 16.0659 0.546632 16.093 0.535278C16.12 0.523924 16.149 0.518094 16.1783 0.518094C16.2075 0.518094 16.2365 0.523924 16.2635 0.535278C16.2906 0.546634 16.3152 0.563306 16.3359 0.584387L16.3359 0.584413L16.3402 0.588664L18.3976 2.63327Z" fill="#252B42" stroke="black"/>
</svg>
