<svg width="49" height="48" fill="none" xmlns="http://www.w3.org/2000/svg"><g clip-path="url(#clip0)"><g clip-path="url(#clip1)" fill="#fff"><path d="M30.142 13.624H42.14v3.446H30.142v-3.446zM30.142 22.238H42.14v3.445H30.142v-3.445zM30.142 30.85H42.14v3.446H30.142v-3.445z"/><path d="M45.568 5.011H4.432c-.909.001-1.78.364-2.423 1.01a3.458 3.458 0 00-1.005 2.435v31.008c.001.914.363 1.79 1.005 2.436a3.423 3.423 0 002.423 1.01h41.136a3.425 3.425 0 002.422-1.011 3.459 3.459 0 001.006-2.435V8.456c-.001-.913-.363-1.789-1.005-2.435a3.423 3.423 0 00-2.423-1.01zM4.432 8.456h18.854v31.008H4.432V8.456zm22.282 31.008V8.456h18.854l.003 31.008H26.714z"/></g></g><defs><clipPath id="clip0"><path fill="#fff" transform="translate(.5)" d="M0 0h48v48H0z"/></clipPath><clipPath id="clip1"><path fill="#fff" transform="translate(1 5)" d="M0 0h48v37.92H0z"/></clipPath></defs></svg>